<?xml version="1.0" encoding="UTF-8"?>
<svg xmlns="http://www.w3.org/2000/svg" xmlns:xlink="http://www.w3.org/1999/xlink" width="14px" height="14px" viewBox="0 0 14 14" version="1.1">
<g id="surface1">
<path style=" stroke:none;fill-rule:evenodd;fill:rgb(100%,60%,0%);fill-opacity:1;" d="M 12.386719 12.363281 C 10.9375 13.429688 8.839844 14 7.035156 14 C 4.496094 14 2.222656 13.0625 0.496094 11.503906 C 0.367188 11.382812 0.484375 11.214844 0.644531 11.3125 C 2.507812 12.394531 4.8125 13.046875 7.1875 13.046875 C 8.902344 13.039062 10.597656 12.691406 12.175781 12.027344 C 12.421875 11.921875 12.628906 12.1875 12.386719 12.363281 M 12.988281 11.675781 C 12.804688 11.4375 11.765625 11.5625 11.300781 11.617188 C 11.15625 11.636719 11.136719 11.511719 11.265625 11.421875 C 12.09375 10.839844 13.449219 11.007812 13.605469 11.203125 C 13.765625 11.398438 13.566406 12.761719 12.789062 13.410156 C 12.667969 13.511719 12.554688 13.457031 12.613281 13.324219 C 12.789062 12.890625 13.179688 11.914062 12.996094 11.675781 "/>
<path style=" stroke:none;fill-rule:evenodd;fill:rgb(13.333333%,12.156863%,12.156863%);fill-opacity:1;" d="M 8.0625 6.066406 C 8.0625 6.804688 8.082031 7.421875 7.707031 8.082031 C 7.402344 8.613281 6.921875 8.945312 6.394531 8.945312 C 5.664062 8.945312 5.238281 8.386719 5.238281 7.566406 C 5.238281 5.949219 6.6875 5.652344 8.0625 5.652344 L 8.0625 6.066406 M 9.980469 10.695312 C 9.855469 10.808594 9.671875 10.816406 9.53125 10.742188 C 8.902344 10.21875 8.785156 9.972656 8.441406 9.476562 C 7.398438 10.539062 6.660156 10.855469 5.308594 10.855469 C 3.707031 10.855469 2.464844 9.871094 2.464844 7.894531 C 2.464844 6.355469 3.300781 5.304688 4.492188 4.789062 C 5.523438 4.335938 6.964844 4.257812 8.0625 4.132812 L 8.0625 3.894531 C 8.0625 3.441406 8.097656 2.90625 7.832031 2.519531 C 7.601562 2.167969 7.160156 2.023438 6.765625 2.023438 C 6.042969 2.023438 5.398438 2.394531 5.242188 3.164062 C 5.207031 3.339844 5.082031 3.503906 4.910156 3.511719 L 3.0625 3.304688 C 2.90625 3.269531 2.734375 3.144531 2.78125 2.910156 C 3.207031 0.671875 5.226562 0 7.03125 0 C 7.957031 0 9.164062 0.246094 9.894531 0.945312 C 10.816406 1.808594 10.730469 2.960938 10.730469 4.214844 L 10.730469 7.175781 C 10.730469 8.066406 11.097656 8.453125 11.445312 8.9375 C 11.566406 9.109375 11.59375 9.3125 11.4375 9.441406 C 10.949219 9.855469 10.460938 10.277344 9.984375 10.703125 L 9.980469 10.695312 "/>
</g>
</svg>
