<?xml version="1.0" encoding="UTF-8"?>
<svg xmlns="http://www.w3.org/2000/svg" xmlns:xlink="http://www.w3.org/1999/xlink" width="15px" height="18px" viewBox="0 0 15 18" version="1.1">
<g id="surface1">
<path style=" stroke:none;fill-rule:nonzero;fill:rgb(0%,0%,0%);fill-opacity:1;" d="M 12.527344 9.542969 C 12.554688 12.261719 14.972656 13.167969 15 13.179688 C 14.980469 13.242188 14.613281 14.46875 13.726562 15.734375 C 12.957031 16.828125 12.160156 17.917969 10.90625 17.941406 C 9.671875 17.964844 9.273438 17.230469 7.863281 17.230469 C 6.453125 17.230469 6.015625 17.917969 4.847656 17.964844 C 3.636719 18.007812 2.710938 16.78125 1.9375 15.691406 C 0.355469 13.460938 -0.851562 9.386719 0.769531 6.640625 C 1.578125 5.273438 3.019531 4.410156 4.582031 4.386719 C 5.773438 4.363281 6.894531 5.167969 7.621094 5.167969 C 8.347656 5.167969 9.714844 4.203125 11.148438 4.34375 C 11.75 4.367188 13.4375 4.582031 14.519531 6.125 C 14.429688 6.179688 12.507812 7.273438 12.527344 9.542969 M 10.210938 2.867188 C 10.851562 2.109375 11.285156 1.050781 11.167969 0 C 10.238281 0.0351562 9.117188 0.601562 8.453125 1.363281 C 7.859375 2.035156 7.335938 3.109375 7.476562 4.140625 C 8.511719 4.21875 9.566406 3.628906 10.210938 2.867188 "/>
</g>
</svg>
