<?xml version="1.0" encoding="UTF-8"?>
<svg xmlns="http://www.w3.org/2000/svg" xmlns:xlink="http://www.w3.org/1999/xlink" width="5px" height="6px" viewBox="0 0 5 6" version="1.1">
<g id="surface1">
<path style=" stroke:none;fill-rule:nonzero;fill:rgb(0%,0%,0%);fill-opacity:1;" d="M 4.175781 3.179688 C 4.183594 4.085938 4.992188 4.390625 5 4.394531 C 4.992188 4.414062 4.871094 4.824219 4.574219 5.246094 C 4.320312 5.609375 4.054688 5.972656 3.636719 5.980469 C 3.222656 5.988281 3.089844 5.742188 2.621094 5.742188 C 2.152344 5.742188 2.003906 5.972656 1.617188 5.988281 C 1.210938 6.003906 0.902344 5.59375 0.644531 5.230469 C 0.117188 4.488281 -0.285156 3.128906 0.257812 2.214844 C 0.527344 1.757812 1.007812 1.46875 1.527344 1.460938 C 1.925781 1.453125 2.296875 1.722656 2.539062 1.722656 C 2.78125 1.722656 3.238281 1.402344 3.714844 1.449219 C 3.917969 1.457031 4.480469 1.527344 4.839844 2.042969 C 4.808594 2.058594 4.167969 2.425781 4.175781 3.179688 M 3.402344 0.957031 C 3.617188 0.703125 3.761719 0.351562 3.722656 0 C 3.414062 0.0117188 3.039062 0.199219 2.816406 0.453125 C 2.621094 0.679688 2.445312 1.035156 2.492188 1.378906 C 2.835938 1.40625 3.1875 1.210938 3.402344 0.957031 "/>
</g>
</svg>
