<?xml version="1.0" encoding="UTF-8"?>
<svg xmlns="http://www.w3.org/2000/svg" xmlns:xlink="http://www.w3.org/1999/xlink" width="14px" height="14px" viewBox="0 0 14 14" version="1.1">
<g id="surface1">
<path style=" stroke:none;fill-rule:nonzero;fill:rgb(0%,0%,0%);fill-opacity:1;" d="M 4.125 9.007812 C 4.125 8.773438 3.960938 8.636719 3.679688 8.636719 C 3.5625 8.636719 3.484375 8.648438 3.441406 8.660156 L 3.441406 9.40625 C 3.492188 9.414062 3.550781 9.417969 3.632812 9.417969 C 3.9375 9.417969 4.125 9.265625 4.125 9.007812 Z M 4.125 9.007812 "/>
<path style=" stroke:none;fill-rule:nonzero;fill:rgb(0%,0%,0%);fill-opacity:1;" d="M 5.886719 8.644531 C 5.757812 8.644531 5.675781 8.65625 5.628906 8.667969 L 5.628906 10.316406 C 5.675781 10.328125 5.753906 10.328125 5.824219 10.328125 C 6.34375 10.332031 6.679688 10.046875 6.679688 9.445312 C 6.683594 8.921875 6.375 8.644531 5.886719 8.644531 Z M 5.886719 8.644531 "/>
<path style=" stroke:none;fill-rule:nonzero;fill:rgb(0%,0%,0%);fill-opacity:1;" d="M 9.160156 0 L 3.535156 0 C 2.714844 0 2.046875 0.667969 2.046875 1.488281 L 2.046875 7 L 1.902344 7 C 1.570312 7 1.300781 7.269531 1.300781 7.601562 L 1.300781 11.242188 C 1.300781 11.574219 1.570312 11.84375 1.902344 11.84375 L 2.046875 11.84375 L 2.046875 12.511719 C 2.046875 13.332031 2.714844 14 3.535156 14 L 11.210938 14 C 12.03125 14 12.699219 13.332031 12.699219 12.511719 L 12.699219 3.527344 Z M 2.875 8.257812 C 3.050781 8.226562 3.300781 8.207031 3.648438 8.207031 C 4 8.207031 4.25 8.273438 4.417969 8.40625 C 4.582031 8.535156 4.691406 8.746094 4.691406 8.992188 C 4.691406 9.238281 4.605469 9.449219 4.457031 9.589844 C 4.261719 9.773438 3.972656 9.859375 3.636719 9.859375 C 3.5625 9.859375 3.496094 9.855469 3.441406 9.847656 L 3.441406 10.75 L 2.875 10.75 Z M 11.210938 13.085938 L 3.535156 13.085938 C 3.21875 13.085938 2.960938 12.828125 2.960938 12.511719 L 2.960938 11.84375 L 10.113281 11.84375 C 10.445312 11.84375 10.710938 11.574219 10.710938 11.242188 L 10.710938 7.601562 C 10.710938 7.269531 10.445312 7 10.113281 7 L 2.960938 7 L 2.960938 1.488281 C 2.960938 1.171875 3.21875 0.914062 3.535156 0.914062 L 8.820312 0.90625 L 8.820312 2.859375 C 8.820312 3.429688 9.28125 3.894531 9.851562 3.894531 L 11.765625 3.886719 L 11.785156 12.511719 C 11.785156 12.828125 11.527344 13.085938 11.210938 13.085938 Z M 5.054688 10.738281 L 5.054688 8.257812 C 5.265625 8.222656 5.539062 8.207031 5.824219 8.207031 C 6.304688 8.207031 6.617188 8.292969 6.859375 8.476562 C 7.121094 8.667969 7.289062 8.980469 7.289062 9.425781 C 7.289062 9.910156 7.113281 10.242188 6.867188 10.449219 C 6.601562 10.671875 6.195312 10.777344 5.703125 10.777344 C 5.40625 10.777344 5.195312 10.757812 5.054688 10.738281 Z M 9.144531 9.269531 L 9.144531 9.734375 L 8.238281 9.734375 L 8.238281 10.75 L 7.664062 10.75 L 7.664062 8.222656 L 9.207031 8.222656 L 9.207031 8.691406 L 8.238281 8.691406 L 8.238281 9.269531 Z M 9.144531 9.269531 "/>
</g>
</svg>
