<?xml version="1.0" encoding="UTF-8"?>
<svg xmlns="http://www.w3.org/2000/svg" xmlns:xlink="http://www.w3.org/1999/xlink" width="18px" height="18px" viewBox="0 0 18 18" version="1.1">
<g id="surface1">
<path style=" stroke:none;fill-rule:nonzero;fill:rgb(100%,27.058824%,0%);fill-opacity:1;" d="M 13.503906 9 C 13.503906 11.488281 11.488281 13.503906 9 13.503906 C 6.511719 13.503906 4.496094 11.488281 4.496094 9 C 4.496094 6.511719 6.511719 4.496094 9 4.496094 C 11.488281 4.496094 13.503906 6.511719 13.503906 9 Z M 13.503906 9 "/>
<path style=" stroke:none;fill-rule:nonzero;fill:rgb(100%,100%,100%);fill-opacity:1;" d="M 12 9 C 12 8.636719 11.707031 8.339844 11.34375 8.339844 C 11.164062 8.339844 11.007812 8.410156 10.890625 8.527344 C 10.441406 8.203125 9.820312 7.996094 9.136719 7.96875 L 9.4375 6.5625 L 10.410156 6.765625 C 10.421875 7.015625 10.628906 7.214844 10.878906 7.214844 C 11.136719 7.214844 11.347656 7.003906 11.347656 6.746094 C 11.347656 6.488281 11.136719 6.277344 10.878906 6.277344 C 10.695312 6.277344 10.539062 6.382812 10.464844 6.539062 L 9.375 6.308594 C 9.34375 6.304688 9.3125 6.308594 9.285156 6.324219 C 9.257812 6.339844 9.242188 6.367188 9.230469 6.398438 L 8.898438 7.96875 C 8.199219 7.988281 7.574219 8.195312 7.121094 8.527344 C 7.003906 8.414062 6.839844 8.339844 6.667969 8.339844 C 6.304688 8.339844 6.007812 8.636719 6.007812 9 C 6.007812 9.269531 6.167969 9.496094 6.398438 9.601562 C 6.386719 9.664062 6.382812 9.730469 6.382812 9.800781 C 6.382812 10.8125 7.558594 11.628906 9.011719 11.628906 C 10.464844 11.628906 11.636719 10.8125 11.636719 9.800781 C 11.636719 9.730469 11.632812 9.667969 11.621094 9.605469 C 11.839844 9.5 12 9.269531 12 9 Z M 7.5 9.46875 C 7.5 9.210938 7.710938 9 7.96875 9 C 8.226562 9 8.4375 9.210938 8.4375 9.46875 C 8.4375 9.726562 8.226562 9.9375 7.96875 9.9375 C 7.710938 9.9375 7.5 9.726562 7.5 9.46875 Z M 10.117188 10.707031 C 9.796875 11.027344 9.183594 11.046875 9.003906 11.046875 C 8.828125 11.046875 8.210938 11.023438 7.894531 10.707031 C 7.847656 10.660156 7.847656 10.578125 7.894531 10.53125 C 7.941406 10.484375 8.019531 10.484375 8.066406 10.53125 C 8.269531 10.734375 8.699219 10.804688 9.011719 10.804688 C 9.320312 10.804688 9.746094 10.734375 9.953125 10.53125 C 10 10.484375 10.078125 10.484375 10.128906 10.53125 C 10.164062 10.585938 10.164062 10.660156 10.117188 10.707031 Z M 10.03125 9.9375 C 9.773438 9.9375 9.5625 9.726562 9.5625 9.46875 C 9.5625 9.210938 9.773438 9 10.03125 9 C 10.289062 9 10.5 9.210938 10.5 9.46875 C 10.5 9.726562 10.289062 9.9375 10.03125 9.9375 Z M 10.03125 9.9375 "/>
</g>
</svg>
