<?xml version="1.0" encoding="UTF-8"?>
<svg xmlns="http://www.w3.org/2000/svg" xmlns:xlink="http://www.w3.org/1999/xlink" width="14px" height="14px" viewBox="0 0 14 14" version="1.1">
<g id="surface1">
<path style=" stroke:none;fill-rule:nonzero;fill:rgb(100%,27.058824%,0%);fill-opacity:1;" d="M 10.503906 7 C 10.503906 8.933594 8.933594 10.503906 7 10.503906 C 5.066406 10.503906 3.496094 8.933594 3.496094 7 C 3.496094 5.066406 5.066406 3.496094 7 3.496094 C 8.933594 3.496094 10.503906 5.066406 10.503906 7 Z M 10.503906 7 "/>
<path style=" stroke:none;fill-rule:nonzero;fill:rgb(100%,100%,100%);fill-opacity:1;" d="M 9.335938 7 C 9.335938 6.71875 9.105469 6.488281 8.824219 6.488281 C 8.683594 6.488281 8.5625 6.542969 8.46875 6.632812 C 8.121094 6.382812 7.640625 6.21875 7.105469 6.195312 L 7.339844 5.105469 L 8.097656 5.261719 C 8.105469 5.457031 8.265625 5.613281 8.460938 5.613281 C 8.664062 5.613281 8.828125 5.449219 8.828125 5.246094 C 8.828125 5.046875 8.664062 4.882812 8.460938 4.882812 C 8.320312 4.882812 8.195312 4.964844 8.140625 5.085938 L 7.289062 4.90625 C 7.265625 4.902344 7.242188 4.90625 7.222656 4.917969 C 7.199219 4.929688 7.1875 4.953125 7.179688 4.976562 L 6.921875 6.195312 C 6.378906 6.214844 5.890625 6.375 5.539062 6.632812 C 5.449219 6.546875 5.320312 6.488281 5.183594 6.488281 C 4.902344 6.488281 4.671875 6.71875 4.671875 7 C 4.671875 7.207031 4.796875 7.386719 4.976562 7.46875 C 4.96875 7.515625 4.964844 7.570312 4.964844 7.621094 C 4.964844 8.410156 5.878906 9.042969 7.007812 9.042969 C 8.140625 9.042969 9.050781 8.410156 9.050781 7.621094 C 9.050781 7.570312 9.046875 7.519531 9.039062 7.472656 C 9.207031 7.390625 9.335938 7.207031 9.335938 7 Z M 5.832031 7.363281 C 5.832031 7.164062 5.996094 7 6.195312 7 C 6.398438 7 6.5625 7.164062 6.5625 7.363281 C 6.5625 7.566406 6.398438 7.730469 6.195312 7.730469 C 5.996094 7.730469 5.832031 7.566406 5.832031 7.363281 Z M 7.867188 8.328125 C 7.617188 8.578125 7.144531 8.59375 7.003906 8.59375 C 6.863281 8.59375 6.386719 8.574219 6.140625 8.328125 C 6.101562 8.289062 6.101562 8.230469 6.140625 8.191406 C 6.175781 8.15625 6.238281 8.15625 6.273438 8.191406 C 6.429688 8.347656 6.765625 8.40625 7.007812 8.40625 C 7.25 8.40625 7.582031 8.347656 7.742188 8.191406 C 7.777344 8.15625 7.839844 8.15625 7.875 8.191406 C 7.90625 8.234375 7.90625 8.289062 7.867188 8.328125 Z M 7.804688 7.730469 C 7.601562 7.730469 7.4375 7.566406 7.4375 7.363281 C 7.4375 7.164062 7.601562 7 7.804688 7 C 8.003906 7 8.167969 7.164062 8.167969 7.363281 C 8.167969 7.566406 8.003906 7.730469 7.804688 7.730469 Z M 7.804688 7.730469 "/>
</g>
</svg>
