<?xml version="1.0" encoding="UTF-8"?>
<svg xmlns="http://www.w3.org/2000/svg" xmlns:xlink="http://www.w3.org/1999/xlink" width="14px" height="14px" viewBox="0 0 14 14" version="1.1">
<g id="surface1">
<path style=" stroke:none;fill-rule:nonzero;fill:rgb(0%,0%,0%);fill-opacity:1;" d="M 10.59375 2.613281 L 10.59375 2.847656 C 10.285156 2.902344 10.054688 3 9.894531 3.140625 C 9.667969 3.347656 9.398438 3.664062 9.222656 4.089844 L 5.648438 11.386719 L 5.410156 11.386719 L 1.820312 3.992188 C 1.65625 3.613281 1.425781 3.382812 1.359375 3.296875 C 1.25 3.167969 1.121094 3.066406 0.964844 2.992188 C 0.808594 2.917969 0.597656 2.871094 0.332031 2.847656 L 0.332031 2.613281 L 3.824219 2.613281 L 3.824219 2.847656 C 3.417969 2.886719 3.226562 2.953125 3.109375 3.050781 C 2.988281 3.148438 2.925781 3.273438 2.925781 3.425781 C 2.925781 3.636719 3.027344 3.964844 3.222656 4.410156 L 5.875 9.4375 L 8.464844 4.472656 C 8.667969 3.984375 8.832031 3.644531 8.832031 3.457031 C 8.832031 3.332031 8.769531 3.21875 8.648438 3.105469 C 8.523438 2.992188 8.382812 2.914062 8.085938 2.867188 C 8.066406 2.863281 8.027344 2.859375 7.976562 2.847656 L 7.976562 2.613281 Z M 10.59375 2.613281 "/>
<path style=" stroke:none;fill-rule:nonzero;fill:rgb(0%,0%,0%);fill-opacity:1;" d="M 13.667969 2.613281 L 13.667969 2.847656 C 13.359375 2.902344 13.128906 3 12.96875 3.140625 C 12.742188 3.347656 12.472656 3.664062 12.296875 4.089844 L 9.160156 11.386719 L 8.921875 11.386719 L 5.609375 3.992188 C 5.441406 3.613281 5.214844 3.382812 5.144531 3.296875 C 5.039062 3.167969 4.90625 3.066406 4.75 2.992188 C 4.59375 2.917969 4.449219 2.871094 4.183594 2.847656 L 4.183594 2.613281 L 7.609375 2.613281 L 7.609375 2.847656 C 7.207031 2.886719 7.011719 2.953125 6.894531 3.050781 C 6.773438 3.148438 6.714844 3.273438 6.714844 3.425781 C 6.714844 3.636719 6.8125 3.964844 7.007812 4.410156 L 9.386719 9.4375 L 11.539062 4.472656 C 11.742188 3.984375 11.910156 3.644531 11.910156 3.457031 C 11.910156 3.332031 11.847656 3.21875 11.722656 3.105469 C 11.597656 2.992188 11.386719 2.914062 11.089844 2.867188 C 11.070312 2.863281 11.035156 2.859375 10.984375 2.847656 L 10.984375 2.613281 Z M 13.667969 2.613281 "/>
</g>
</svg>
